<svg width="687" height="331" viewBox="0 0 687 331" fill="none" xmlns="http://www.w3.org/2000/svg">
<path d="M0.520001 54.408V27.336L27.592 21V48.072L0.520001 54.408ZM1.096 237V99.336L28.168 93V237H1.096ZM46.4583 237V93H106.65C112.218 93 117.114 95.016 121.338 99.048C125.562 103.08 127.674 107.976 127.674 113.736V237H100.602V130.44C100.602 127.368 99.5463 124.872 97.4343 122.952C95.3223 121.032 92.9223 120.072 90.2343 120.072H73.5303V237H46.4583ZM164.138 237C158.186 237 153.194 234.984 149.162 230.952C145.13 226.92 143.114 221.928 143.114 215.976V114.024C143.114 108.072 145.13 103.08 149.162 99.048C153.194 95.016 158.186 93 164.138 93H197.258V27.336L224.33 21V237H164.138ZM180.554 209.928H197.258V120.072H180.554C177.866 120.072 175.466 121.032 173.354 122.952C171.242 124.872 170.186 127.368 170.186 130.44V199.56C170.186 202.248 171.242 204.648 173.354 206.76C175.466 208.872 177.866 209.928 180.554 209.928Z" fill="#458CFF"/>
<path d="M268.482 237C262.53 237 257.538 234.984 253.506 230.952C249.474 226.728 247.458 221.736 247.458 215.976V114.024C247.458 108.264 249.474 103.368 253.506 99.336C257.538 95.112 262.53 93 268.482 93H307.65C313.41 93 318.306 95.112 322.338 99.336C326.562 103.368 328.674 108.264 328.674 114.024V145.416H301.602V130.44C301.602 127.56 300.546 125.16 298.434 123.24C296.322 121.128 293.826 120.072 290.946 120.072H284.898C282.018 120.072 279.522 121.128 277.41 123.24C275.49 125.16 274.53 127.56 274.53 130.44V199.56C274.53 202.44 275.49 204.936 277.41 207.048C279.522 208.968 282.018 209.928 284.898 209.928H290.946C293.826 209.928 296.322 208.968 298.434 207.048C300.546 204.936 301.602 202.44 301.602 199.56V184.584H328.674V215.976C328.674 221.736 326.562 226.728 322.338 230.952C318.306 234.984 313.41 237 307.65 237H268.482ZM366.411 237C360.459 237 355.467 234.984 351.435 230.952C347.403 226.728 345.387 221.736 345.387 215.976V114.024C345.387 108.264 347.403 103.368 351.435 99.336C355.467 95.112 360.459 93 366.411 93H405.578C411.339 93 416.235 95.112 420.267 99.336C424.299 103.368 426.315 108.264 426.315 114.024V215.976C426.315 221.736 424.299 226.728 420.267 230.952C416.235 234.984 411.339 237 405.578 237H366.411ZM382.827 209.928H388.875C391.755 209.928 394.251 208.968 396.363 207.048C398.475 204.936 399.531 202.44 399.531 199.56V130.44C399.531 127.56 398.475 125.16 396.363 123.24C394.251 121.128 391.755 120.072 388.875 120.072H382.827C379.947 120.072 377.451 121.128 375.339 123.24C373.419 125.16 372.459 127.56 372.459 130.44V199.56C372.459 202.44 373.419 204.936 375.339 207.048C377.451 208.968 379.947 209.928 382.827 209.928ZM448.734 237V93H563.07C568.83 93 573.726 95.112 577.758 99.336C581.79 103.368 583.806 108.264 583.806 114.024V237H557.022V130.44C557.022 127.56 555.966 125.16 553.854 123.24C551.742 121.128 549.246 120.072 546.366 120.072H529.95V237H502.878V130.44C502.878 127.56 501.822 125.16 499.71 123.24C497.598 121.128 495.102 120.072 492.222 120.072H475.806V237H448.734ZM604.926 309V93H665.118C671.07 93 676.062 95.016 680.094 99.048C684.126 103.08 686.142 108.072 686.142 114.024V215.976C686.142 221.928 684.126 226.92 680.094 230.952C676.062 234.984 671.07 237 665.118 237H631.998V309H604.926ZM631.998 209.928H648.702C651.39 209.928 653.79 208.872 655.902 206.76C658.014 204.648 659.07 202.248 659.07 199.56V130.728C659.07 127.464 658.014 124.872 655.902 122.952C653.79 121.032 651.39 120.072 648.702 120.072H631.998V209.928Z" fill="#63A7FF"/>
<rect x="48" y="309" width="27" height="563" transform="rotate(-90 48 309)" fill="#63A7FF"/>
<rect x="197" y="48" width="27" height="432" transform="rotate(-90 197 48)" fill="#458CFF"/>
<path d="M62.708 330.63L1.95801 293.824L61.208 259.616L62.708 330.63Z" fill="#63A7FF"/>
<path d="M686 34.5L623.75 68.708V0.291996L686 34.5Z" fill="#458CFF"/>
</svg>
