<svg width="236" height="111" viewBox="0 0 236 111" fill="none" xmlns="http://www.w3.org/2000/svg">
<path d="M6.84 18.136V9.112L15.864 6.99999V16.024L6.84 18.136ZM7.032 79V33.112L16.056 31V79H7.032ZM22.1528 79V31H42.2168C44.0728 31 45.7048 31.672 47.1128 33.016C48.5208 34.36 49.2248 35.992 49.2248 37.912V79H40.2008V43.48C40.2008 42.456 39.8488 41.624 39.1448 40.984C38.4408 40.344 37.6408 40.024 36.7448 40.024H31.1768V79H22.1528ZM61.3793 79C59.3953 79 57.7313 78.328 56.3873 76.984C55.0433 75.64 54.3713 73.976 54.3713 71.992V38.008C54.3713 36.024 55.0433 34.36 56.3873 33.016C57.7313 31.672 59.3953 31 61.3793 31H72.4193V9.112L81.4433 6.99999V79H61.3793ZM66.8513 69.976H72.4193V40.024H66.8513C65.9553 40.024 65.1553 40.344 64.4513 40.984C63.7473 41.624 63.3953 42.456 63.3953 43.48V66.52C63.3953 67.416 63.7473 68.216 64.4513 68.92C65.1553 69.624 65.9553 69.976 66.8513 69.976Z" fill="#458CFF"/>
<path d="M96.1605 79C94.1765 79 92.5125 78.328 91.1685 76.984C89.8245 75.576 89.1525 73.912 89.1525 71.992V38.008C89.1525 36.088 89.8245 34.456 91.1685 33.112C92.5125 31.704 94.1765 31 96.1605 31H109.217C111.137 31 112.769 31.704 114.113 33.112C115.521 34.456 116.225 36.088 116.225 38.008V48.472H107.201V43.48C107.201 42.52 106.849 41.72 106.145 41.08C105.441 40.376 104.609 40.024 103.649 40.024H101.633C100.673 40.024 99.8405 40.376 99.1365 41.08C98.4965 41.72 98.1765 42.52 98.1765 43.48V66.52C98.1765 67.48 98.4965 68.312 99.1365 69.016C99.8405 69.656 100.673 69.976 101.633 69.976H103.649C104.609 69.976 105.441 69.656 106.145 69.016C106.849 68.312 107.201 67.48 107.201 66.52V61.528H116.225V71.992C116.225 73.912 115.521 75.576 114.113 76.984C112.769 78.328 111.137 79 109.217 79H96.1605ZM128.804 79C126.82 79 125.156 78.328 123.812 76.984C122.468 75.576 121.796 73.912 121.796 71.992V38.008C121.796 36.088 122.468 34.456 123.812 33.112C125.156 31.704 126.82 31 128.804 31H141.859C143.78 31 145.412 31.704 146.756 33.112C148.1 34.456 148.772 36.088 148.772 38.008V71.992C148.772 73.912 148.1 75.576 146.756 76.984C145.412 78.328 143.78 79 141.859 79H128.804ZM134.276 69.976H136.292C137.252 69.976 138.084 69.656 138.788 69.016C139.492 68.312 139.844 67.48 139.844 66.52V43.48C139.844 42.52 139.492 41.72 138.788 41.08C138.084 40.376 137.252 40.024 136.292 40.024H134.276C133.316 40.024 132.484 40.376 131.78 41.08C131.14 41.72 130.82 42.52 130.82 43.48V66.52C130.82 67.48 131.14 68.312 131.78 69.016C132.484 69.656 133.316 69.976 134.276 69.976ZM156.245 79V31H194.357C196.277 31 197.909 31.704 199.253 33.112C200.597 34.456 201.269 36.088 201.269 38.008V79H192.341V43.48C192.341 42.52 191.989 41.72 191.285 41.08C190.581 40.376 189.749 40.024 188.789 40.024H183.317V79H174.293V43.48C174.293 42.52 173.941 41.72 173.237 41.08C172.533 40.376 171.701 40.024 170.741 40.024H165.269V79H156.245ZM208.309 103V31H228.373C230.357 31 232.021 31.672 233.365 33.016C234.709 34.36 235.381 36.024 235.381 38.008V71.992C235.381 73.976 234.709 75.64 233.365 76.984C232.021 78.328 230.357 79 228.373 79H217.333V103H208.309ZM217.333 69.976H222.901C223.797 69.976 224.597 69.624 225.301 68.92C226.005 68.216 226.357 67.416 226.357 66.52V43.576C226.357 42.488 226.005 41.624 225.301 40.984C224.597 40.344 223.797 40.024 222.901 40.024H217.333V69.976Z" fill="#63A7FF"/>
<path d="M12 0L23.2583 18.75H0.74167L12 0Z" fill="#458CFF"/>
<path d="M213 111L201.742 93H224.258L213 111Z" fill="#63A7FF"/>
</svg>
